<mxfile host="Electron" agent="Mozilla/5.0 (Windows NT 10.0; Win64; x64) AppleWebKit/537.36 (KHTML, like Gecko) draw.io/24.7.17 Chrome/128.0.6613.36 Electron/32.0.1 Safari/537.36" version="24.7.17">
  <diagram name="Page-1" id="UREs2qfjqaoYFJjxJEcS">
    <mxGraphModel dx="1296" dy="1926" grid="1" gridSize="10" guides="1" tooltips="1" connect="1" arrows="1" fold="1" page="1" pageScale="1" pageWidth="850" pageHeight="1100" math="0" shadow="0">
      <root>
        <mxCell id="0" />
        <mxCell id="1" parent="0" />
        <mxCell id="gVF-Jg7-6oq7kNuCv0lK-37" value="" style="edgeStyle=entityRelationEdgeStyle;fontSize=12;html=1;endArrow=ERoneToMany;rounded=0;entryX=1;entryY=0.5;entryDx=0;entryDy=0;exitX=0;exitY=0.5;exitDx=0;exitDy=0;" parent="1" source="gVF-Jg7-6oq7kNuCv0lK-134" target="gVF-Jg7-6oq7kNuCv0lK-120" edge="1">
          <mxGeometry width="100" height="100" relative="1" as="geometry">
            <mxPoint x="830" y="510" as="sourcePoint" />
            <mxPoint x="180" y="493.98199999999997" as="targetPoint" />
          </mxGeometry>
        </mxCell>
        <mxCell id="gVF-Jg7-6oq7kNuCv0lK-40" value="" style="edgeStyle=entityRelationEdgeStyle;fontSize=12;html=1;endArrow=ERoneToMany;rounded=0;exitX=0;exitY=0.5;exitDx=0;exitDy=0;entryX=1;entryY=0.5;entryDx=0;entryDy=0;" parent="1" source="gVF-Jg7-6oq7kNuCv0lK-154" target="gVF-Jg7-6oq7kNuCv0lK-209" edge="1">
          <mxGeometry width="100" height="100" relative="1" as="geometry">
            <mxPoint x="960" y="270" as="sourcePoint" />
            <mxPoint x="860" y="170" as="targetPoint" />
          </mxGeometry>
        </mxCell>
        <mxCell id="gVF-Jg7-6oq7kNuCv0lK-51" value="" style="edgeStyle=entityRelationEdgeStyle;fontSize=12;html=1;endArrow=ERoneToMany;rounded=0;entryX=0;entryY=0.5;entryDx=0;entryDy=0;exitX=1;exitY=0.5;exitDx=0;exitDy=0;" parent="1" source="gVF-Jg7-6oq7kNuCv0lK-70" target="gVF-Jg7-6oq7kNuCv0lK-89" edge="1">
          <mxGeometry width="100" height="100" relative="1" as="geometry">
            <mxPoint x="261.1199999999999" y="81.99000000000001" as="sourcePoint" />
            <mxPoint x="366.94000000000005" y="133.952" as="targetPoint" />
          </mxGeometry>
        </mxCell>
        <mxCell id="gVF-Jg7-6oq7kNuCv0lK-52" value="" style="edgeStyle=entityRelationEdgeStyle;fontSize=12;html=1;endArrow=ERoneToMany;rounded=0;entryX=1;entryY=0.5;entryDx=0;entryDy=0;exitX=0;exitY=0.5;exitDx=0;exitDy=0;" parent="1" source="gVF-Jg7-6oq7kNuCv0lK-144" target="gVF-Jg7-6oq7kNuCv0lK-209" edge="1">
          <mxGeometry width="100" height="100" relative="1" as="geometry">
            <mxPoint x="1210" y="110" as="sourcePoint" />
            <mxPoint x="1170" y="110" as="targetPoint" />
          </mxGeometry>
        </mxCell>
        <mxCell id="gVF-Jg7-6oq7kNuCv0lK-55" value="" style="edgeStyle=entityRelationEdgeStyle;fontSize=12;html=1;endArrow=ERoneToMany;rounded=0;entryX=1;entryY=0.5;entryDx=0;entryDy=0;exitX=0;exitY=0.5;exitDx=0;exitDy=0;" parent="1" source="gVF-Jg7-6oq7kNuCv0lK-144" target="gVF-Jg7-6oq7kNuCv0lK-137" edge="1">
          <mxGeometry width="100" height="100" relative="1" as="geometry">
            <mxPoint x="930" y="400" as="sourcePoint" />
            <mxPoint x="940" y="450" as="targetPoint" />
          </mxGeometry>
        </mxCell>
        <mxCell id="gVF-Jg7-6oq7kNuCv0lK-69" value="&lt;span style=&quot;text-wrap: wrap;&quot;&gt;Продавец&lt;/span&gt;" style="shape=table;startSize=30;container=1;collapsible=1;childLayout=tableLayout;fixedRows=1;rowLines=0;fontStyle=1;align=center;resizeLast=1;html=1;" parent="1" vertex="1">
          <mxGeometry x="50" y="-920" width="180" height="310" as="geometry" />
        </mxCell>
        <mxCell id="gVF-Jg7-6oq7kNuCv0lK-70" value="" style="shape=tableRow;horizontal=0;startSize=0;swimlaneHead=0;swimlaneBody=0;fillColor=none;collapsible=0;dropTarget=0;points=[[0,0.5],[1,0.5]];portConstraint=eastwest;top=0;left=0;right=0;bottom=1;" parent="gVF-Jg7-6oq7kNuCv0lK-69" vertex="1">
          <mxGeometry y="30" width="180" height="30" as="geometry" />
        </mxCell>
        <mxCell id="gVF-Jg7-6oq7kNuCv0lK-71" value="PK" style="shape=partialRectangle;connectable=0;fillColor=none;top=0;left=0;bottom=0;right=0;fontStyle=1;overflow=hidden;whiteSpace=wrap;html=1;" parent="gVF-Jg7-6oq7kNuCv0lK-70" vertex="1">
          <mxGeometry width="30" height="30" as="geometry">
            <mxRectangle width="30" height="30" as="alternateBounds" />
          </mxGeometry>
        </mxCell>
        <mxCell id="gVF-Jg7-6oq7kNuCv0lK-72" value="ID int" style="shape=partialRectangle;connectable=0;fillColor=none;top=0;left=0;bottom=0;right=0;align=left;spacingLeft=6;fontStyle=5;overflow=hidden;whiteSpace=wrap;html=1;" parent="gVF-Jg7-6oq7kNuCv0lK-70" vertex="1">
          <mxGeometry x="30" width="150" height="30" as="geometry">
            <mxRectangle width="150" height="30" as="alternateBounds" />
          </mxGeometry>
        </mxCell>
        <mxCell id="gVF-Jg7-6oq7kNuCv0lK-73" value="" style="shape=tableRow;horizontal=0;startSize=0;swimlaneHead=0;swimlaneBody=0;fillColor=none;collapsible=0;dropTarget=0;points=[[0,0.5],[1,0.5]];portConstraint=eastwest;top=0;left=0;right=0;bottom=0;" parent="gVF-Jg7-6oq7kNuCv0lK-69" vertex="1">
          <mxGeometry y="60" width="180" height="250" as="geometry" />
        </mxCell>
        <mxCell id="gVF-Jg7-6oq7kNuCv0lK-74" value="" style="shape=partialRectangle;connectable=0;fillColor=none;top=0;left=0;bottom=0;right=0;editable=1;overflow=hidden;whiteSpace=wrap;html=1;" parent="gVF-Jg7-6oq7kNuCv0lK-73" vertex="1">
          <mxGeometry width="30" height="250" as="geometry">
            <mxRectangle width="30" height="250" as="alternateBounds" />
          </mxGeometry>
        </mxCell>
        <mxCell id="gVF-Jg7-6oq7kNuCv0lK-75" value="&lt;p style=&quot;line-height: 12px; margin-bottom: 0in;&quot; align=&quot;left&quot; lang=&quot;ru-RU&quot;&gt;&lt;span style=&quot;background-color: initial;&quot;&gt;-заработная плата int&lt;/span&gt;&lt;br&gt;&lt;/p&gt;&lt;p style=&quot;line-height: 12px; margin-bottom: 0in;&quot; align=&quot;left&quot; lang=&quot;ru-RU&quot;&gt;-график работы string&lt;/p&gt;&lt;p style=&quot;line-height: 12px; margin-bottom: 0in;&quot; align=&quot;left&quot; lang=&quot;ru-RU&quot;&gt;-ФИО&lt;span style=&quot;background-color: initial;&quot;&gt;&amp;nbsp;&lt;/span&gt;&lt;span style=&quot;background-color: initial;&quot;&gt;string&lt;/span&gt;&lt;/p&gt;&lt;p style=&quot;line-height: 12px; margin-bottom: 0in;&quot; align=&quot;left&quot; lang=&quot;ru-RU&quot;&gt;-дата рождения&lt;span style=&quot;background-color: initial;&quot;&gt;&amp;nbsp;&lt;/span&gt;&lt;span style=&quot;background-color: initial;&quot;&gt;string&lt;/span&gt;&lt;/p&gt;&lt;p style=&quot;line-height: 12px; margin-bottom: 0in;&quot; align=&quot;left&quot; lang=&quot;ru-RU&quot;&gt;-паспорт&lt;span style=&quot;background-color: initial;&quot;&gt;&amp;nbsp;&lt;/span&gt;&lt;span style=&quot;background-color: initial;&quot;&gt;string&lt;/span&gt;&lt;/p&gt;&lt;p style=&quot;line-height: 12px; margin-bottom: 0in;&quot; align=&quot;left&quot; lang=&quot;ru-RU&quot;&gt;-прописка&lt;span style=&quot;background-color: initial;&quot;&gt;&amp;nbsp;&lt;/span&gt;&lt;span style=&quot;background-color: initial;&quot;&gt;string&lt;/span&gt;&lt;/p&gt;&lt;p style=&quot;line-height: 12px; margin-bottom: 0in;&quot; align=&quot;left&quot; lang=&quot;ru-RU&quot;&gt;-медицинская справка о допуске к работе&lt;span style=&quot;background-color: initial;&quot;&gt;&amp;nbsp;&lt;/span&gt;&lt;span style=&quot;background-color: initial;&quot;&gt;string&lt;/span&gt;&lt;/p&gt;&lt;p style=&quot;line-height: 12px; margin-bottom: 0in;&quot; align=&quot;left&quot; lang=&quot;ru-RU&quot;&gt;-ИНН&lt;span style=&quot;background-color: initial;&quot;&gt;&amp;nbsp;&lt;/span&gt;&lt;span style=&quot;background-color: initial;&quot;&gt;string&lt;/span&gt;&lt;/p&gt;&lt;p style=&quot;line-height: 12px; margin-bottom: 0in;&quot; align=&quot;left&quot; lang=&quot;ru-RU&quot;&gt;-СНИЛС&lt;span style=&quot;background-color: initial;&quot;&gt;&amp;nbsp;&lt;/span&gt;&lt;span style=&quot;background-color: initial;&quot;&gt;string&lt;/span&gt;&lt;/p&gt;" style="shape=partialRectangle;connectable=0;fillColor=none;top=0;left=0;bottom=0;right=0;align=left;spacingLeft=6;overflow=hidden;whiteSpace=wrap;html=1;" parent="gVF-Jg7-6oq7kNuCv0lK-73" vertex="1">
          <mxGeometry x="30" width="150" height="250" as="geometry">
            <mxRectangle width="150" height="250" as="alternateBounds" />
          </mxGeometry>
        </mxCell>
        <mxCell id="gVF-Jg7-6oq7kNuCv0lK-82" value="&lt;span style=&quot;font-size: 14px; font-weight: 400;&quot;&gt;Касса&lt;/span&gt;" style="shape=table;startSize=30;container=1;collapsible=1;childLayout=tableLayout;fixedRows=1;rowLines=0;fontStyle=1;align=center;resizeLast=1;html=1;" parent="1" vertex="1">
          <mxGeometry x="360" y="-920" width="200" height="200" as="geometry" />
        </mxCell>
        <mxCell id="gVF-Jg7-6oq7kNuCv0lK-83" value="" style="shape=tableRow;horizontal=0;startSize=0;swimlaneHead=0;swimlaneBody=0;fillColor=none;collapsible=0;dropTarget=0;points=[[0,0.5],[1,0.5]];portConstraint=eastwest;top=0;left=0;right=0;bottom=1;" parent="gVF-Jg7-6oq7kNuCv0lK-82" vertex="1">
          <mxGeometry y="30" width="200" height="30" as="geometry" />
        </mxCell>
        <mxCell id="gVF-Jg7-6oq7kNuCv0lK-84" value="PK" style="shape=partialRectangle;connectable=0;fillColor=none;top=0;left=0;bottom=0;right=0;fontStyle=1;overflow=hidden;whiteSpace=wrap;html=1;" parent="gVF-Jg7-6oq7kNuCv0lK-83" vertex="1">
          <mxGeometry width="30" height="30" as="geometry">
            <mxRectangle width="30" height="30" as="alternateBounds" />
          </mxGeometry>
        </mxCell>
        <mxCell id="gVF-Jg7-6oq7kNuCv0lK-85" value="ID int" style="shape=partialRectangle;connectable=0;fillColor=none;top=0;left=0;bottom=0;right=0;align=left;spacingLeft=6;fontStyle=5;overflow=hidden;whiteSpace=wrap;html=1;" parent="gVF-Jg7-6oq7kNuCv0lK-83" vertex="1">
          <mxGeometry x="30" width="170" height="30" as="geometry">
            <mxRectangle width="170" height="30" as="alternateBounds" />
          </mxGeometry>
        </mxCell>
        <mxCell id="gVF-Jg7-6oq7kNuCv0lK-86" value="" style="shape=tableRow;horizontal=0;startSize=0;swimlaneHead=0;swimlaneBody=0;fillColor=none;collapsible=0;dropTarget=0;points=[[0,0.5],[1,0.5]];portConstraint=eastwest;top=0;left=0;right=0;bottom=0;" parent="gVF-Jg7-6oq7kNuCv0lK-82" vertex="1">
          <mxGeometry y="60" width="200" height="140" as="geometry" />
        </mxCell>
        <mxCell id="gVF-Jg7-6oq7kNuCv0lK-87" value="" style="shape=partialRectangle;connectable=0;fillColor=none;top=0;left=0;bottom=0;right=0;editable=1;overflow=hidden;whiteSpace=wrap;html=1;" parent="gVF-Jg7-6oq7kNuCv0lK-86" vertex="1">
          <mxGeometry width="30" height="140" as="geometry">
            <mxRectangle width="30" height="140" as="alternateBounds" />
          </mxGeometry>
        </mxCell>
        <mxCell id="gVF-Jg7-6oq7kNuCv0lK-88" value="&lt;p style=&quot;line-height: 12px; margin-bottom: 0in;&quot; align=&quot;left&quot; lang=&quot;ru-RU&quot;&gt;-ID&amp;nbsp;&lt;span style=&quot;background-color: initial;&quot;&gt;PrimaryKey&lt;/span&gt;&lt;/p&gt;&lt;p style=&quot;line-height: 12px; margin-bottom: 0in;&quot; align=&quot;left&quot; lang=&quot;ru-RU&quot;&gt;-расчетный счет&amp;nbsp;&lt;span style=&quot;background-color: initial;&quot;&gt;string&lt;/span&gt;&lt;/p&gt;&lt;p style=&quot;line-height: 12px; margin-bottom: 0in;&quot; align=&quot;left&quot; lang=&quot;ru-RU&quot;&gt;-общая сумма денег int&lt;/p&gt;&lt;p style=&quot;line-height: 12px; margin-bottom: 0in;&quot; align=&quot;left&quot; lang=&quot;ru-RU&quot;&gt;-список покупок Покупка[]&lt;/p&gt;" style="shape=partialRectangle;connectable=0;fillColor=none;top=0;left=0;bottom=0;right=0;align=left;spacingLeft=6;overflow=hidden;whiteSpace=wrap;html=1;" parent="gVF-Jg7-6oq7kNuCv0lK-86" vertex="1">
          <mxGeometry x="30" width="170" height="140" as="geometry">
            <mxRectangle width="170" height="140" as="alternateBounds" />
          </mxGeometry>
        </mxCell>
        <mxCell id="gVF-Jg7-6oq7kNuCv0lK-89" value="" style="shape=tableRow;horizontal=0;startSize=0;swimlaneHead=0;swimlaneBody=0;fillColor=none;collapsible=0;dropTarget=0;points=[[0,0.5],[1,0.5]];portConstraint=eastwest;top=0;left=0;right=0;bottom=1;" parent="1" vertex="1">
          <mxGeometry x="360" y="-860" width="200" height="30" as="geometry" />
        </mxCell>
        <mxCell id="gVF-Jg7-6oq7kNuCv0lK-90" value="FK" style="shape=partialRectangle;connectable=0;fillColor=none;top=0;left=0;bottom=0;right=0;fontStyle=1;overflow=hidden;whiteSpace=wrap;html=1;" parent="gVF-Jg7-6oq7kNuCv0lK-89" vertex="1">
          <mxGeometry width="30" height="30" as="geometry">
            <mxRectangle width="30" height="30" as="alternateBounds" />
          </mxGeometry>
        </mxCell>
        <mxCell id="gVF-Jg7-6oq7kNuCv0lK-91" value="&lt;span style=&quot;font-weight: 400;&quot;&gt;ID продавца int&lt;/span&gt;" style="shape=partialRectangle;connectable=0;fillColor=none;top=0;left=0;bottom=0;right=0;align=left;spacingLeft=6;fontStyle=5;overflow=hidden;whiteSpace=wrap;html=1;" parent="gVF-Jg7-6oq7kNuCv0lK-89" vertex="1">
          <mxGeometry x="30" width="160" height="30" as="geometry">
            <mxRectangle width="150" height="30" as="alternateBounds" />
          </mxGeometry>
        </mxCell>
        <mxCell id="gVF-Jg7-6oq7kNuCv0lK-104" value="Покупатель" style="shape=table;startSize=30;container=1;collapsible=1;childLayout=tableLayout;fixedRows=1;rowLines=0;fontStyle=1;align=center;resizeLast=1;html=1;" parent="1" vertex="1">
          <mxGeometry x="480" y="-1080" width="180" height="120" as="geometry" />
        </mxCell>
        <mxCell id="gVF-Jg7-6oq7kNuCv0lK-105" value="" style="shape=tableRow;horizontal=0;startSize=0;swimlaneHead=0;swimlaneBody=0;fillColor=none;collapsible=0;dropTarget=0;points=[[0,0.5],[1,0.5]];portConstraint=eastwest;top=0;left=0;right=0;bottom=1;" parent="gVF-Jg7-6oq7kNuCv0lK-104" vertex="1">
          <mxGeometry y="30" width="180" height="30" as="geometry" />
        </mxCell>
        <mxCell id="gVF-Jg7-6oq7kNuCv0lK-106" value="PK" style="shape=partialRectangle;connectable=0;fillColor=none;top=0;left=0;bottom=0;right=0;fontStyle=1;overflow=hidden;whiteSpace=wrap;html=1;" parent="gVF-Jg7-6oq7kNuCv0lK-105" vertex="1">
          <mxGeometry width="30" height="30" as="geometry">
            <mxRectangle width="30" height="30" as="alternateBounds" />
          </mxGeometry>
        </mxCell>
        <mxCell id="gVF-Jg7-6oq7kNuCv0lK-107" value="ID int" style="shape=partialRectangle;connectable=0;fillColor=none;top=0;left=0;bottom=0;right=0;align=left;spacingLeft=6;fontStyle=5;overflow=hidden;whiteSpace=wrap;html=1;" parent="gVF-Jg7-6oq7kNuCv0lK-105" vertex="1">
          <mxGeometry x="30" width="150" height="30" as="geometry">
            <mxRectangle width="150" height="30" as="alternateBounds" />
          </mxGeometry>
        </mxCell>
        <mxCell id="gVF-Jg7-6oq7kNuCv0lK-120" value="" style="shape=tableRow;horizontal=0;startSize=0;swimlaneHead=0;swimlaneBody=0;fillColor=none;collapsible=0;dropTarget=0;points=[[0,0.5],[1,0.5]];portConstraint=eastwest;top=0;left=0;right=0;bottom=0;" parent="gVF-Jg7-6oq7kNuCv0lK-104" vertex="1">
          <mxGeometry y="60" width="180" height="30" as="geometry" />
        </mxCell>
        <mxCell id="gVF-Jg7-6oq7kNuCv0lK-121" value="FK" style="shape=partialRectangle;connectable=0;fillColor=none;top=0;left=0;bottom=0;right=0;fontStyle=0;overflow=hidden;whiteSpace=wrap;html=1;" parent="gVF-Jg7-6oq7kNuCv0lK-120" vertex="1">
          <mxGeometry width="30" height="30" as="geometry">
            <mxRectangle width="30" height="30" as="alternateBounds" />
          </mxGeometry>
        </mxCell>
        <mxCell id="gVF-Jg7-6oq7kNuCv0lK-122" value="ID покупки int" style="shape=partialRectangle;connectable=0;fillColor=none;top=0;left=0;bottom=0;right=0;align=left;spacingLeft=6;fontStyle=0;overflow=hidden;whiteSpace=wrap;html=1;" parent="gVF-Jg7-6oq7kNuCv0lK-120" vertex="1">
          <mxGeometry x="30" width="150" height="30" as="geometry">
            <mxRectangle width="150" height="30" as="alternateBounds" />
          </mxGeometry>
        </mxCell>
        <mxCell id="gVF-Jg7-6oq7kNuCv0lK-108" value="" style="shape=tableRow;horizontal=0;startSize=0;swimlaneHead=0;swimlaneBody=0;fillColor=none;collapsible=0;dropTarget=0;points=[[0,0.5],[1,0.5]];portConstraint=eastwest;top=0;left=0;right=0;bottom=0;" parent="gVF-Jg7-6oq7kNuCv0lK-104" vertex="1">
          <mxGeometry y="90" width="180" height="30" as="geometry" />
        </mxCell>
        <mxCell id="gVF-Jg7-6oq7kNuCv0lK-109" value="" style="shape=partialRectangle;connectable=0;fillColor=none;top=0;left=0;bottom=0;right=0;editable=1;overflow=hidden;whiteSpace=wrap;html=1;" parent="gVF-Jg7-6oq7kNuCv0lK-108" vertex="1">
          <mxGeometry width="30" height="30" as="geometry">
            <mxRectangle width="30" height="30" as="alternateBounds" />
          </mxGeometry>
        </mxCell>
        <mxCell id="gVF-Jg7-6oq7kNuCv0lK-110" value="&lt;div&gt;&lt;span style=&quot;background-color: initial;&quot;&gt;-источник средств&amp;nbsp;&lt;/span&gt;&lt;span style=&quot;background-color: initial;&quot;&gt;string&lt;/span&gt;&lt;br&gt;&lt;/div&gt;" style="shape=partialRectangle;connectable=0;fillColor=none;top=0;left=0;bottom=0;right=0;align=left;spacingLeft=6;overflow=hidden;whiteSpace=wrap;html=1;" parent="gVF-Jg7-6oq7kNuCv0lK-108" vertex="1">
          <mxGeometry x="30" width="150" height="30" as="geometry">
            <mxRectangle width="150" height="30" as="alternateBounds" />
          </mxGeometry>
        </mxCell>
        <mxCell id="gVF-Jg7-6oq7kNuCv0lK-133" value="Покупка" style="shape=table;startSize=30;container=1;collapsible=1;childLayout=tableLayout;fixedRows=1;rowLines=0;fontStyle=1;align=center;resizeLast=1;html=1;" parent="1" vertex="1">
          <mxGeometry x="760" y="-1050" width="180" height="170" as="geometry" />
        </mxCell>
        <mxCell id="gVF-Jg7-6oq7kNuCv0lK-134" value="" style="shape=tableRow;horizontal=0;startSize=0;swimlaneHead=0;swimlaneBody=0;fillColor=none;collapsible=0;dropTarget=0;points=[[0,0.5],[1,0.5]];portConstraint=eastwest;top=0;left=0;right=0;bottom=1;" parent="gVF-Jg7-6oq7kNuCv0lK-133" vertex="1">
          <mxGeometry y="30" width="180" height="30" as="geometry" />
        </mxCell>
        <mxCell id="gVF-Jg7-6oq7kNuCv0lK-135" value="PK" style="shape=partialRectangle;connectable=0;fillColor=none;top=0;left=0;bottom=0;right=0;fontStyle=1;overflow=hidden;whiteSpace=wrap;html=1;" parent="gVF-Jg7-6oq7kNuCv0lK-134" vertex="1">
          <mxGeometry width="30" height="30" as="geometry">
            <mxRectangle width="30" height="30" as="alternateBounds" />
          </mxGeometry>
        </mxCell>
        <mxCell id="gVF-Jg7-6oq7kNuCv0lK-136" value="ID int" style="shape=partialRectangle;connectable=0;fillColor=none;top=0;left=0;bottom=0;right=0;align=left;spacingLeft=6;fontStyle=5;overflow=hidden;whiteSpace=wrap;html=1;" parent="gVF-Jg7-6oq7kNuCv0lK-134" vertex="1">
          <mxGeometry x="30" width="150" height="30" as="geometry">
            <mxRectangle width="150" height="30" as="alternateBounds" />
          </mxGeometry>
        </mxCell>
        <mxCell id="gVF-Jg7-6oq7kNuCv0lK-137" value="" style="shape=tableRow;horizontal=0;startSize=0;swimlaneHead=0;swimlaneBody=0;fillColor=none;collapsible=0;dropTarget=0;points=[[0,0.5],[1,0.5]];portConstraint=eastwest;top=0;left=0;right=0;bottom=0;" parent="gVF-Jg7-6oq7kNuCv0lK-133" vertex="1">
          <mxGeometry y="60" width="180" height="30" as="geometry" />
        </mxCell>
        <mxCell id="gVF-Jg7-6oq7kNuCv0lK-138" value="FK" style="shape=partialRectangle;connectable=0;fillColor=none;top=0;left=0;bottom=0;right=0;fontStyle=0;overflow=hidden;whiteSpace=wrap;html=1;" parent="gVF-Jg7-6oq7kNuCv0lK-137" vertex="1">
          <mxGeometry width="30" height="30" as="geometry">
            <mxRectangle width="30" height="30" as="alternateBounds" />
          </mxGeometry>
        </mxCell>
        <mxCell id="gVF-Jg7-6oq7kNuCv0lK-139" value="Список покупок int" style="shape=partialRectangle;connectable=0;fillColor=none;top=0;left=0;bottom=0;right=0;align=left;spacingLeft=6;fontStyle=0;overflow=hidden;whiteSpace=wrap;html=1;" parent="gVF-Jg7-6oq7kNuCv0lK-137" vertex="1">
          <mxGeometry x="30" width="150" height="30" as="geometry">
            <mxRectangle width="150" height="30" as="alternateBounds" />
          </mxGeometry>
        </mxCell>
        <mxCell id="gVF-Jg7-6oq7kNuCv0lK-140" value="" style="shape=tableRow;horizontal=0;startSize=0;swimlaneHead=0;swimlaneBody=0;fillColor=none;collapsible=0;dropTarget=0;points=[[0,0.5],[1,0.5]];portConstraint=eastwest;top=0;left=0;right=0;bottom=0;" parent="gVF-Jg7-6oq7kNuCv0lK-133" vertex="1">
          <mxGeometry y="90" width="180" height="80" as="geometry" />
        </mxCell>
        <mxCell id="gVF-Jg7-6oq7kNuCv0lK-141" value="" style="shape=partialRectangle;connectable=0;fillColor=none;top=0;left=0;bottom=0;right=0;editable=1;overflow=hidden;whiteSpace=wrap;html=1;" parent="gVF-Jg7-6oq7kNuCv0lK-140" vertex="1">
          <mxGeometry width="30" height="80" as="geometry">
            <mxRectangle width="30" height="80" as="alternateBounds" />
          </mxGeometry>
        </mxCell>
        <mxCell id="gVF-Jg7-6oq7kNuCv0lK-142" value="&lt;p style=&quot;line-height: 12px; margin-bottom: 0in;&quot; align=&quot;left&quot; lang=&quot;ru-RU&quot;&gt;-ID PrimaryKey&lt;/p&gt;&lt;p style=&quot;line-height: 12px; margin-bottom: 0in;&quot; align=&quot;left&quot; lang=&quot;ru-RU&quot;&gt;-сумма оплаты int&lt;/p&gt;&lt;p style=&quot;line-height: 12px; margin-bottom: 0in;&quot; align=&quot;left&quot; lang=&quot;ru-RU&quot;&gt;-метод оплаты&amp;nbsp;&lt;span style=&quot;background-color: initial;&quot;&gt;&amp;nbsp;&lt;/span&gt;&lt;span style=&quot;background-color: initial;&quot;&gt;string&lt;/span&gt;&lt;/p&gt;" style="shape=partialRectangle;connectable=0;fillColor=none;top=0;left=0;bottom=0;right=0;align=left;spacingLeft=6;overflow=hidden;whiteSpace=wrap;html=1;" parent="gVF-Jg7-6oq7kNuCv0lK-140" vertex="1">
          <mxGeometry x="30" width="150" height="80" as="geometry">
            <mxRectangle width="150" height="80" as="alternateBounds" />
          </mxGeometry>
        </mxCell>
        <mxCell id="gVF-Jg7-6oq7kNuCv0lK-143" value="Товар" style="shape=table;startSize=30;container=1;collapsible=1;childLayout=tableLayout;fixedRows=1;rowLines=0;fontStyle=1;align=center;resizeLast=1;html=1;" parent="1" vertex="1">
          <mxGeometry x="1040" y="-925" width="180" height="210" as="geometry" />
        </mxCell>
        <mxCell id="gVF-Jg7-6oq7kNuCv0lK-144" value="" style="shape=tableRow;horizontal=0;startSize=0;swimlaneHead=0;swimlaneBody=0;fillColor=none;collapsible=0;dropTarget=0;points=[[0,0.5],[1,0.5]];portConstraint=eastwest;top=0;left=0;right=0;bottom=1;" parent="gVF-Jg7-6oq7kNuCv0lK-143" vertex="1">
          <mxGeometry y="30" width="180" height="30" as="geometry" />
        </mxCell>
        <mxCell id="gVF-Jg7-6oq7kNuCv0lK-145" value="PK" style="shape=partialRectangle;connectable=0;fillColor=none;top=0;left=0;bottom=0;right=0;fontStyle=1;overflow=hidden;whiteSpace=wrap;html=1;" parent="gVF-Jg7-6oq7kNuCv0lK-144" vertex="1">
          <mxGeometry width="30" height="30" as="geometry">
            <mxRectangle width="30" height="30" as="alternateBounds" />
          </mxGeometry>
        </mxCell>
        <mxCell id="gVF-Jg7-6oq7kNuCv0lK-146" value="ID int" style="shape=partialRectangle;connectable=0;fillColor=none;top=0;left=0;bottom=0;right=0;align=left;spacingLeft=6;fontStyle=5;overflow=hidden;whiteSpace=wrap;html=1;" parent="gVF-Jg7-6oq7kNuCv0lK-144" vertex="1">
          <mxGeometry x="30" width="150" height="30" as="geometry">
            <mxRectangle width="150" height="30" as="alternateBounds" />
          </mxGeometry>
        </mxCell>
        <mxCell id="gVF-Jg7-6oq7kNuCv0lK-150" value="" style="shape=tableRow;horizontal=0;startSize=0;swimlaneHead=0;swimlaneBody=0;fillColor=none;collapsible=0;dropTarget=0;points=[[0,0.5],[1,0.5]];portConstraint=eastwest;top=0;left=0;right=0;bottom=0;" parent="gVF-Jg7-6oq7kNuCv0lK-143" vertex="1">
          <mxGeometry y="60" width="180" height="150" as="geometry" />
        </mxCell>
        <mxCell id="gVF-Jg7-6oq7kNuCv0lK-151" value="" style="shape=partialRectangle;connectable=0;fillColor=none;top=0;left=0;bottom=0;right=0;editable=1;overflow=hidden;whiteSpace=wrap;html=1;" parent="gVF-Jg7-6oq7kNuCv0lK-150" vertex="1">
          <mxGeometry width="30" height="150" as="geometry">
            <mxRectangle width="30" height="150" as="alternateBounds" />
          </mxGeometry>
        </mxCell>
        <mxCell id="gVF-Jg7-6oq7kNuCv0lK-152" value="&lt;p style=&quot;line-height: 12px; margin-bottom: 0in;&quot; align=&quot;left&quot; lang=&quot;ru-RU&quot;&gt;&lt;span style=&quot;background-color: initial;&quot;&gt;-пригодность bool&lt;/span&gt;&lt;br&gt;&lt;/p&gt;&lt;p style=&quot;line-height: 12px; margin-bottom: 0in;&quot; align=&quot;left&quot; lang=&quot;ru-RU&quot;&gt;-цена int&lt;/p&gt;&lt;p style=&quot;line-height: 12px; margin-bottom: 0in;&quot; align=&quot;left&quot; lang=&quot;ru-RU&quot;&gt;-количество int&lt;/p&gt;&lt;p style=&quot;line-height: 12px; margin-bottom: 0in;&quot; align=&quot;left&quot; lang=&quot;ru-RU&quot;&gt;-категория&amp;nbsp;&lt;span style=&quot;background-color: initial;&quot;&gt;&amp;nbsp;&lt;/span&gt;&lt;span style=&quot;background-color: initial;&quot;&gt;string&lt;/span&gt;&lt;/p&gt;&lt;p style=&quot;line-height: 12px; margin-bottom: 0in;&quot; align=&quot;left&quot; lang=&quot;ru-RU&quot;&gt;-критерий пригодности&lt;span style=&quot;background-color: initial;&quot;&gt;&amp;nbsp;&lt;/span&gt;&lt;span style=&quot;background-color: initial;&quot;&gt;string&lt;/span&gt;&lt;/p&gt;" style="shape=partialRectangle;connectable=0;fillColor=none;top=0;left=0;bottom=0;right=0;align=left;spacingLeft=6;overflow=hidden;whiteSpace=wrap;html=1;" parent="gVF-Jg7-6oq7kNuCv0lK-150" vertex="1">
          <mxGeometry x="30" width="150" height="150" as="geometry">
            <mxRectangle width="150" height="150" as="alternateBounds" />
          </mxGeometry>
        </mxCell>
        <mxCell id="gVF-Jg7-6oq7kNuCv0lK-153" value="Торговое имущество" style="shape=table;startSize=30;container=1;collapsible=1;childLayout=tableLayout;fixedRows=1;rowLines=0;fontStyle=1;align=center;resizeLast=1;html=1;" parent="1" vertex="1">
          <mxGeometry x="1020" y="-610" width="180" height="120" as="geometry" />
        </mxCell>
        <mxCell id="gVF-Jg7-6oq7kNuCv0lK-154" value="" style="shape=tableRow;horizontal=0;startSize=0;swimlaneHead=0;swimlaneBody=0;fillColor=none;collapsible=0;dropTarget=0;points=[[0,0.5],[1,0.5]];portConstraint=eastwest;top=0;left=0;right=0;bottom=1;" parent="gVF-Jg7-6oq7kNuCv0lK-153" vertex="1">
          <mxGeometry y="30" width="180" height="30" as="geometry" />
        </mxCell>
        <mxCell id="gVF-Jg7-6oq7kNuCv0lK-155" value="PK" style="shape=partialRectangle;connectable=0;fillColor=none;top=0;left=0;bottom=0;right=0;fontStyle=1;overflow=hidden;whiteSpace=wrap;html=1;" parent="gVF-Jg7-6oq7kNuCv0lK-154" vertex="1">
          <mxGeometry width="30" height="30" as="geometry">
            <mxRectangle width="30" height="30" as="alternateBounds" />
          </mxGeometry>
        </mxCell>
        <mxCell id="gVF-Jg7-6oq7kNuCv0lK-156" value="ID int" style="shape=partialRectangle;connectable=0;fillColor=none;top=0;left=0;bottom=0;right=0;align=left;spacingLeft=6;fontStyle=5;overflow=hidden;whiteSpace=wrap;html=1;" parent="gVF-Jg7-6oq7kNuCv0lK-154" vertex="1">
          <mxGeometry x="30" width="150" height="30" as="geometry">
            <mxRectangle width="150" height="30" as="alternateBounds" />
          </mxGeometry>
        </mxCell>
        <mxCell id="gVF-Jg7-6oq7kNuCv0lK-157" value="" style="shape=tableRow;horizontal=0;startSize=0;swimlaneHead=0;swimlaneBody=0;fillColor=none;collapsible=0;dropTarget=0;points=[[0,0.5],[1,0.5]];portConstraint=eastwest;top=0;left=0;right=0;bottom=0;" parent="gVF-Jg7-6oq7kNuCv0lK-153" vertex="1">
          <mxGeometry y="60" width="180" height="60" as="geometry" />
        </mxCell>
        <mxCell id="gVF-Jg7-6oq7kNuCv0lK-158" value="" style="shape=partialRectangle;connectable=0;fillColor=none;top=0;left=0;bottom=0;right=0;editable=1;overflow=hidden;whiteSpace=wrap;html=1;" parent="gVF-Jg7-6oq7kNuCv0lK-157" vertex="1">
          <mxGeometry width="30" height="60" as="geometry">
            <mxRectangle width="30" height="60" as="alternateBounds" />
          </mxGeometry>
        </mxCell>
        <mxCell id="gVF-Jg7-6oq7kNuCv0lK-159" value="&lt;p style=&quot;line-height: 12px; margin-bottom: 0in;&quot; align=&quot;left&quot; lang=&quot;ru-RU&quot;&gt;&lt;span style=&quot;background-color: initial;&quot;&gt;-пригодность bool&lt;/span&gt;&lt;br&gt;&lt;/p&gt;&lt;p style=&quot;line-height: 12px; margin-bottom: 0in;&quot; align=&quot;left&quot; lang=&quot;ru-RU&quot;&gt;-цена int&lt;/p&gt;" style="shape=partialRectangle;connectable=0;fillColor=none;top=0;left=0;bottom=0;right=0;align=left;spacingLeft=6;overflow=hidden;whiteSpace=wrap;html=1;" parent="gVF-Jg7-6oq7kNuCv0lK-157" vertex="1">
          <mxGeometry x="30" width="150" height="60" as="geometry">
            <mxRectangle width="150" height="60" as="alternateBounds" />
          </mxGeometry>
        </mxCell>
        <mxCell id="gVF-Jg7-6oq7kNuCv0lK-167" value="Операция" style="shape=table;startSize=30;container=1;collapsible=1;childLayout=tableLayout;fixedRows=1;rowLines=0;fontStyle=1;align=center;resizeLast=1;html=1;" parent="1" vertex="1">
          <mxGeometry x="360" y="-670" width="180" height="170" as="geometry" />
        </mxCell>
        <mxCell id="gVF-Jg7-6oq7kNuCv0lK-168" value="" style="shape=tableRow;horizontal=0;startSize=0;swimlaneHead=0;swimlaneBody=0;fillColor=none;collapsible=0;dropTarget=0;points=[[0,0.5],[1,0.5]];portConstraint=eastwest;top=0;left=0;right=0;bottom=1;" parent="gVF-Jg7-6oq7kNuCv0lK-167" vertex="1">
          <mxGeometry y="30" width="180" height="30" as="geometry" />
        </mxCell>
        <mxCell id="gVF-Jg7-6oq7kNuCv0lK-169" value="PK" style="shape=partialRectangle;connectable=0;fillColor=none;top=0;left=0;bottom=0;right=0;fontStyle=1;overflow=hidden;whiteSpace=wrap;html=1;" parent="gVF-Jg7-6oq7kNuCv0lK-168" vertex="1">
          <mxGeometry width="30" height="30" as="geometry">
            <mxRectangle width="30" height="30" as="alternateBounds" />
          </mxGeometry>
        </mxCell>
        <mxCell id="gVF-Jg7-6oq7kNuCv0lK-170" value="ID int" style="shape=partialRectangle;connectable=0;fillColor=none;top=0;left=0;bottom=0;right=0;align=left;spacingLeft=6;fontStyle=5;overflow=hidden;whiteSpace=wrap;html=1;" parent="gVF-Jg7-6oq7kNuCv0lK-168" vertex="1">
          <mxGeometry x="30" width="150" height="30" as="geometry">
            <mxRectangle width="150" height="30" as="alternateBounds" />
          </mxGeometry>
        </mxCell>
        <mxCell id="gVF-Jg7-6oq7kNuCv0lK-171" value="" style="shape=tableRow;horizontal=0;startSize=0;swimlaneHead=0;swimlaneBody=0;fillColor=none;collapsible=0;dropTarget=0;points=[[0,0.5],[1,0.5]];portConstraint=eastwest;top=0;left=0;right=0;bottom=0;" parent="gVF-Jg7-6oq7kNuCv0lK-167" vertex="1">
          <mxGeometry y="60" width="180" height="30" as="geometry" />
        </mxCell>
        <mxCell id="gVF-Jg7-6oq7kNuCv0lK-172" value="FK" style="shape=partialRectangle;connectable=0;fillColor=none;top=0;left=0;bottom=0;right=0;fontStyle=0;overflow=hidden;whiteSpace=wrap;html=1;" parent="gVF-Jg7-6oq7kNuCv0lK-171" vertex="1">
          <mxGeometry width="30" height="30" as="geometry">
            <mxRectangle width="30" height="30" as="alternateBounds" />
          </mxGeometry>
        </mxCell>
        <mxCell id="gVF-Jg7-6oq7kNuCv0lK-173" value="ID актора" style="shape=partialRectangle;connectable=0;fillColor=none;top=0;left=0;bottom=0;right=0;align=left;spacingLeft=6;fontStyle=0;overflow=hidden;whiteSpace=wrap;html=1;" parent="gVF-Jg7-6oq7kNuCv0lK-171" vertex="1">
          <mxGeometry x="30" width="150" height="30" as="geometry">
            <mxRectangle width="150" height="30" as="alternateBounds" />
          </mxGeometry>
        </mxCell>
        <mxCell id="gVF-Jg7-6oq7kNuCv0lK-174" value="" style="shape=tableRow;horizontal=0;startSize=0;swimlaneHead=0;swimlaneBody=0;fillColor=none;collapsible=0;dropTarget=0;points=[[0,0.5],[1,0.5]];portConstraint=eastwest;top=0;left=0;right=0;bottom=0;" parent="gVF-Jg7-6oq7kNuCv0lK-167" vertex="1">
          <mxGeometry y="90" width="180" height="80" as="geometry" />
        </mxCell>
        <mxCell id="gVF-Jg7-6oq7kNuCv0lK-175" value="" style="shape=partialRectangle;connectable=0;fillColor=none;top=0;left=0;bottom=0;right=0;editable=1;overflow=hidden;whiteSpace=wrap;html=1;" parent="gVF-Jg7-6oq7kNuCv0lK-174" vertex="1">
          <mxGeometry width="30" height="80" as="geometry">
            <mxRectangle width="30" height="80" as="alternateBounds" />
          </mxGeometry>
        </mxCell>
        <mxCell id="gVF-Jg7-6oq7kNuCv0lK-176" value="&lt;p style=&quot;line-height: 12px; margin-bottom: 0in;&quot; align=&quot;left&quot; lang=&quot;ru-RU&quot;&gt;действие string[]&lt;/p&gt;" style="shape=partialRectangle;connectable=0;fillColor=none;top=0;left=0;bottom=0;right=0;align=left;spacingLeft=6;overflow=hidden;whiteSpace=wrap;html=1;" parent="gVF-Jg7-6oq7kNuCv0lK-174" vertex="1">
          <mxGeometry x="30" width="150" height="80" as="geometry">
            <mxRectangle width="150" height="80" as="alternateBounds" />
          </mxGeometry>
        </mxCell>
        <mxCell id="gVF-Jg7-6oq7kNuCv0lK-177" value="" style="shape=tableRow;horizontal=0;startSize=0;swimlaneHead=0;swimlaneBody=0;fillColor=none;collapsible=0;dropTarget=0;points=[[0,0.5],[1,0.5]];portConstraint=eastwest;top=0;left=0;right=0;bottom=0;" parent="1" vertex="1">
          <mxGeometry x="360" y="-580" width="180" height="30" as="geometry" />
        </mxCell>
        <mxCell id="gVF-Jg7-6oq7kNuCv0lK-178" value="FK" style="shape=partialRectangle;connectable=0;fillColor=none;top=0;left=0;bottom=0;right=0;fontStyle=0;overflow=hidden;whiteSpace=wrap;html=1;" parent="gVF-Jg7-6oq7kNuCv0lK-177" vertex="1">
          <mxGeometry width="30" height="30" as="geometry">
            <mxRectangle width="30" height="30" as="alternateBounds" />
          </mxGeometry>
        </mxCell>
        <mxCell id="gVF-Jg7-6oq7kNuCv0lK-179" value="ID торгового имущества" style="shape=partialRectangle;connectable=0;fillColor=none;top=0;left=0;bottom=0;right=0;align=left;spacingLeft=6;fontStyle=0;overflow=hidden;whiteSpace=wrap;html=1;" parent="gVF-Jg7-6oq7kNuCv0lK-177" vertex="1">
          <mxGeometry x="30" width="150" height="30" as="geometry">
            <mxRectangle width="150" height="30" as="alternateBounds" />
          </mxGeometry>
        </mxCell>
        <mxCell id="gVF-Jg7-6oq7kNuCv0lK-193" value="" style="edgeStyle=entityRelationEdgeStyle;fontSize=12;html=1;endArrow=ERoneToMany;rounded=0;entryX=0;entryY=0.5;entryDx=0;entryDy=0;" parent="1" source="gVF-Jg7-6oq7kNuCv0lK-168" target="gVF-Jg7-6oq7kNuCv0lK-219" edge="1">
          <mxGeometry width="100" height="100" relative="1" as="geometry">
            <mxPoint x="900" y="320" as="sourcePoint" />
            <mxPoint x="1000" y="220" as="targetPoint" />
          </mxGeometry>
        </mxCell>
        <mxCell id="gVF-Jg7-6oq7kNuCv0lK-194" value="&lt;span style=&quot;text-wrap: wrap;&quot;&gt;Администратор&lt;/span&gt;" style="shape=table;startSize=30;container=1;collapsible=1;childLayout=tableLayout;fixedRows=1;rowLines=0;fontStyle=1;align=center;resizeLast=1;html=1;" parent="1" vertex="1">
          <mxGeometry x="50" y="-550" width="180" height="310" as="geometry" />
        </mxCell>
        <mxCell id="gVF-Jg7-6oq7kNuCv0lK-195" value="" style="shape=tableRow;horizontal=0;startSize=0;swimlaneHead=0;swimlaneBody=0;fillColor=none;collapsible=0;dropTarget=0;points=[[0,0.5],[1,0.5]];portConstraint=eastwest;top=0;left=0;right=0;bottom=1;" parent="gVF-Jg7-6oq7kNuCv0lK-194" vertex="1">
          <mxGeometry y="30" width="180" height="30" as="geometry" />
        </mxCell>
        <mxCell id="gVF-Jg7-6oq7kNuCv0lK-196" value="PK" style="shape=partialRectangle;connectable=0;fillColor=none;top=0;left=0;bottom=0;right=0;fontStyle=1;overflow=hidden;whiteSpace=wrap;html=1;" parent="gVF-Jg7-6oq7kNuCv0lK-195" vertex="1">
          <mxGeometry width="30" height="30" as="geometry">
            <mxRectangle width="30" height="30" as="alternateBounds" />
          </mxGeometry>
        </mxCell>
        <mxCell id="gVF-Jg7-6oq7kNuCv0lK-197" value="ID int" style="shape=partialRectangle;connectable=0;fillColor=none;top=0;left=0;bottom=0;right=0;align=left;spacingLeft=6;fontStyle=5;overflow=hidden;whiteSpace=wrap;html=1;" parent="gVF-Jg7-6oq7kNuCv0lK-195" vertex="1">
          <mxGeometry x="30" width="150" height="30" as="geometry">
            <mxRectangle width="150" height="30" as="alternateBounds" />
          </mxGeometry>
        </mxCell>
        <mxCell id="gVF-Jg7-6oq7kNuCv0lK-198" value="" style="shape=tableRow;horizontal=0;startSize=0;swimlaneHead=0;swimlaneBody=0;fillColor=none;collapsible=0;dropTarget=0;points=[[0,0.5],[1,0.5]];portConstraint=eastwest;top=0;left=0;right=0;bottom=0;" parent="gVF-Jg7-6oq7kNuCv0lK-194" vertex="1">
          <mxGeometry y="60" width="180" height="250" as="geometry" />
        </mxCell>
        <mxCell id="gVF-Jg7-6oq7kNuCv0lK-199" value="" style="shape=partialRectangle;connectable=0;fillColor=none;top=0;left=0;bottom=0;right=0;editable=1;overflow=hidden;whiteSpace=wrap;html=1;" parent="gVF-Jg7-6oq7kNuCv0lK-198" vertex="1">
          <mxGeometry width="30" height="250" as="geometry">
            <mxRectangle width="30" height="250" as="alternateBounds" />
          </mxGeometry>
        </mxCell>
        <mxCell id="gVF-Jg7-6oq7kNuCv0lK-200" value="&lt;p style=&quot;line-height: 12px; margin-bottom: 0in;&quot; align=&quot;left&quot; lang=&quot;ru-RU&quot;&gt;&lt;span style=&quot;background-color: initial;&quot;&gt;-заработная плата int&lt;/span&gt;&lt;br&gt;&lt;/p&gt;&lt;p style=&quot;line-height: 12px; margin-bottom: 0in;&quot; align=&quot;left&quot; lang=&quot;ru-RU&quot;&gt;-график работы string&lt;/p&gt;&lt;p style=&quot;line-height: 12px; margin-bottom: 0in;&quot; align=&quot;left&quot; lang=&quot;ru-RU&quot;&gt;-ФИО&lt;span style=&quot;background-color: initial;&quot;&gt;&amp;nbsp;&lt;/span&gt;&lt;span style=&quot;background-color: initial;&quot;&gt;string&lt;/span&gt;&lt;/p&gt;&lt;p style=&quot;line-height: 12px; margin-bottom: 0in;&quot; align=&quot;left&quot; lang=&quot;ru-RU&quot;&gt;-дата рождения&lt;span style=&quot;background-color: initial;&quot;&gt;&amp;nbsp;&lt;/span&gt;&lt;span style=&quot;background-color: initial;&quot;&gt;string&lt;/span&gt;&lt;/p&gt;&lt;p style=&quot;line-height: 12px; margin-bottom: 0in;&quot; align=&quot;left&quot; lang=&quot;ru-RU&quot;&gt;-паспорт&lt;span style=&quot;background-color: initial;&quot;&gt;&amp;nbsp;&lt;/span&gt;&lt;span style=&quot;background-color: initial;&quot;&gt;string&lt;/span&gt;&lt;/p&gt;&lt;p style=&quot;line-height: 12px; margin-bottom: 0in;&quot; align=&quot;left&quot; lang=&quot;ru-RU&quot;&gt;-прописка&lt;span style=&quot;background-color: initial;&quot;&gt;&amp;nbsp;&lt;/span&gt;&lt;span style=&quot;background-color: initial;&quot;&gt;string&lt;/span&gt;&lt;/p&gt;&lt;p style=&quot;line-height: 12px; margin-bottom: 0in;&quot; align=&quot;left&quot; lang=&quot;ru-RU&quot;&gt;-медицинская справка о допуске к работе&lt;span style=&quot;background-color: initial;&quot;&gt;&amp;nbsp;&lt;/span&gt;&lt;span style=&quot;background-color: initial;&quot;&gt;string&lt;/span&gt;&lt;/p&gt;&lt;p style=&quot;line-height: 12px; margin-bottom: 0in;&quot; align=&quot;left&quot; lang=&quot;ru-RU&quot;&gt;-ИНН&lt;span style=&quot;background-color: initial;&quot;&gt;&amp;nbsp;&lt;/span&gt;&lt;span style=&quot;background-color: initial;&quot;&gt;string&lt;/span&gt;&lt;/p&gt;&lt;p style=&quot;line-height: 12px; margin-bottom: 0in;&quot; align=&quot;left&quot; lang=&quot;ru-RU&quot;&gt;-СНИЛС&lt;span style=&quot;background-color: initial;&quot;&gt;&amp;nbsp;&lt;/span&gt;&lt;span style=&quot;background-color: initial;&quot;&gt;string&lt;/span&gt;&lt;/p&gt;" style="shape=partialRectangle;connectable=0;fillColor=none;top=0;left=0;bottom=0;right=0;align=left;spacingLeft=6;overflow=hidden;whiteSpace=wrap;html=1;" parent="gVF-Jg7-6oq7kNuCv0lK-198" vertex="1">
          <mxGeometry x="30" width="150" height="250" as="geometry">
            <mxRectangle width="150" height="250" as="alternateBounds" />
          </mxGeometry>
        </mxCell>
        <mxCell id="gVF-Jg7-6oq7kNuCv0lK-201" value="" style="edgeStyle=entityRelationEdgeStyle;fontSize=12;html=1;endArrow=ERoneToMany;rounded=0;entryX=0;entryY=0.5;entryDx=0;entryDy=0;exitX=1;exitY=0.5;exitDx=0;exitDy=0;" parent="1" source="gVF-Jg7-6oq7kNuCv0lK-195" target="gVF-Jg7-6oq7kNuCv0lK-171" edge="1">
          <mxGeometry width="100" height="100" relative="1" as="geometry">
            <mxPoint x="590" y="-270" as="sourcePoint" />
            <mxPoint x="710" y="-240" as="targetPoint" />
          </mxGeometry>
        </mxCell>
        <mxCell id="gVF-Jg7-6oq7kNuCv0lK-202" value="" style="edgeStyle=entityRelationEdgeStyle;fontSize=12;html=1;endArrow=ERoneToMany;rounded=0;entryX=0;entryY=0.5;entryDx=0;entryDy=0;exitX=1;exitY=0.5;exitDx=0;exitDy=0;" parent="1" source="gVF-Jg7-6oq7kNuCv0lK-70" target="gVF-Jg7-6oq7kNuCv0lK-171" edge="1">
          <mxGeometry width="100" height="100" relative="1" as="geometry">
            <mxPoint x="260" y="115" as="sourcePoint" />
            <mxPoint x="380" y="145" as="targetPoint" />
          </mxGeometry>
        </mxCell>
        <mxCell id="gVF-Jg7-6oq7kNuCv0lK-203" value="" style="edgeStyle=entityRelationEdgeStyle;fontSize=12;html=1;endArrow=ERoneToMany;rounded=0;exitX=0;exitY=0.5;exitDx=0;exitDy=0;entryX=1;entryY=0.5;entryDx=0;entryDy=0;" parent="1" source="gVF-Jg7-6oq7kNuCv0lK-154" target="gVF-Jg7-6oq7kNuCv0lK-177" edge="1">
          <mxGeometry width="100" height="100" relative="1" as="geometry">
            <mxPoint x="1010" y="45" as="sourcePoint" />
            <mxPoint x="800" y="158" as="targetPoint" />
          </mxGeometry>
        </mxCell>
        <mxCell id="gVF-Jg7-6oq7kNuCv0lK-205" value="Склад" style="shape=table;startSize=30;container=1;collapsible=1;childLayout=tableLayout;fixedRows=1;rowLines=0;fontStyle=1;align=center;resizeLast=1;html=1;" parent="1" vertex="1">
          <mxGeometry x="630" y="-720" width="280" height="120" as="geometry" />
        </mxCell>
        <mxCell id="gVF-Jg7-6oq7kNuCv0lK-206" value="" style="shape=tableRow;horizontal=0;startSize=0;swimlaneHead=0;swimlaneBody=0;fillColor=none;collapsible=0;dropTarget=0;points=[[0,0.5],[1,0.5]];portConstraint=eastwest;top=0;left=0;right=0;bottom=1;" parent="gVF-Jg7-6oq7kNuCv0lK-205" vertex="1">
          <mxGeometry y="30" width="280" height="30" as="geometry" />
        </mxCell>
        <mxCell id="gVF-Jg7-6oq7kNuCv0lK-207" value="PK" style="shape=partialRectangle;connectable=0;fillColor=none;top=0;left=0;bottom=0;right=0;fontStyle=1;overflow=hidden;whiteSpace=wrap;html=1;" parent="gVF-Jg7-6oq7kNuCv0lK-206" vertex="1">
          <mxGeometry width="30" height="30" as="geometry">
            <mxRectangle width="30" height="30" as="alternateBounds" />
          </mxGeometry>
        </mxCell>
        <mxCell id="gVF-Jg7-6oq7kNuCv0lK-208" value="ID int" style="shape=partialRectangle;connectable=0;fillColor=none;top=0;left=0;bottom=0;right=0;align=left;spacingLeft=6;fontStyle=5;overflow=hidden;whiteSpace=wrap;html=1;" parent="gVF-Jg7-6oq7kNuCv0lK-206" vertex="1">
          <mxGeometry x="30" width="250" height="30" as="geometry">
            <mxRectangle width="250" height="30" as="alternateBounds" />
          </mxGeometry>
        </mxCell>
        <mxCell id="gVF-Jg7-6oq7kNuCv0lK-209" value="" style="shape=tableRow;horizontal=0;startSize=0;swimlaneHead=0;swimlaneBody=0;fillColor=none;collapsible=0;dropTarget=0;points=[[0,0.5],[1,0.5]];portConstraint=eastwest;top=0;left=0;right=0;bottom=0;" parent="gVF-Jg7-6oq7kNuCv0lK-205" vertex="1">
          <mxGeometry y="60" width="280" height="30" as="geometry" />
        </mxCell>
        <mxCell id="gVF-Jg7-6oq7kNuCv0lK-210" value="FK" style="shape=partialRectangle;connectable=0;fillColor=none;top=0;left=0;bottom=0;right=0;fontStyle=0;overflow=hidden;whiteSpace=wrap;html=1;" parent="gVF-Jg7-6oq7kNuCv0lK-209" vertex="1">
          <mxGeometry width="30" height="30" as="geometry">
            <mxRectangle width="30" height="30" as="alternateBounds" />
          </mxGeometry>
        </mxCell>
        <mxCell id="gVF-Jg7-6oq7kNuCv0lK-211" value="список имущества Торговое Имущество[]" style="shape=partialRectangle;connectable=0;fillColor=none;top=0;left=0;bottom=0;right=0;align=left;spacingLeft=6;fontStyle=0;overflow=hidden;whiteSpace=wrap;html=1;" parent="gVF-Jg7-6oq7kNuCv0lK-209" vertex="1">
          <mxGeometry x="30" width="250" height="30" as="geometry">
            <mxRectangle width="250" height="30" as="alternateBounds" />
          </mxGeometry>
        </mxCell>
        <mxCell id="gVF-Jg7-6oq7kNuCv0lK-219" value="" style="shape=tableRow;horizontal=0;startSize=0;swimlaneHead=0;swimlaneBody=0;fillColor=none;collapsible=0;dropTarget=0;points=[[0,0.5],[1,0.5]];portConstraint=eastwest;top=0;left=0;right=0;bottom=0;" parent="gVF-Jg7-6oq7kNuCv0lK-205" vertex="1">
          <mxGeometry y="90" width="280" height="30" as="geometry" />
        </mxCell>
        <mxCell id="gVF-Jg7-6oq7kNuCv0lK-220" value="FK" style="shape=partialRectangle;connectable=0;fillColor=none;top=0;left=0;bottom=0;right=0;editable=1;overflow=hidden;" parent="gVF-Jg7-6oq7kNuCv0lK-219" vertex="1">
          <mxGeometry width="30" height="30" as="geometry">
            <mxRectangle width="30" height="30" as="alternateBounds" />
          </mxGeometry>
        </mxCell>
        <mxCell id="gVF-Jg7-6oq7kNuCv0lK-221" value="список действий Операция[]" style="shape=partialRectangle;connectable=0;fillColor=none;top=0;left=0;bottom=0;right=0;align=left;spacingLeft=6;overflow=hidden;" parent="gVF-Jg7-6oq7kNuCv0lK-219" vertex="1">
          <mxGeometry x="30" width="250" height="30" as="geometry">
            <mxRectangle width="250" height="30" as="alternateBounds" />
          </mxGeometry>
        </mxCell>
      </root>
    </mxGraphModel>
  </diagram>
</mxfile>
